<svg xmlns="http://www.w3.org/2000/svg" xmlns:xlink="http://www.w3.org/1999/xlink" width="120" zoomAndPan="magnify" viewBox="0 0 90 89.999999" height="120" preserveAspectRatio="xMidYMid meet" version="1.0"><defs><g/><clipPath id="2560cfeda7"><path d="M 2.9375 3.546875 L 4.054688 3.546875 L 4.054688 5.945312 L 2.9375 5.945312 Z M 2.9375 5.945312 L 4.054688 5.945312 L 4.054688 85.335938 L 2.9375 85.335938 Z M 2.9375 85.335938 L 86.984375 85.335938 L 86.984375 86.453125 L 2.9375 86.453125 Z M 2.9375 85.335938 " clip-rule="nonzero"/></clipPath><clipPath id="00cf22ec75"><path d="M 3.011719 3.546875 L 87.058594 3.546875 L 87.058594 4.554688 L 3.011719 4.554688 Z M 86.050781 4.554688 L 87.058594 4.554688 L 87.058594 86.453125 L 86.050781 86.453125 Z M 86.050781 4.554688 " clip-rule="nonzero"/></clipPath></defs><rect x="-9" width="108" fill="#ffffff" y="-9" height="107.999999" fill-opacity="1"/><rect x="-9" width="108" fill="#ffffff" y="-9" height="107.999999" fill-opacity="1"/><rect x="-9" width="108" fill="#000000" y="-9" height="107.999999" fill-opacity="1"/><g clip-path="url(#2560cfeda7)"><path fill="#d9d9d9" d="M 2.9375 86.453125 L 2.9375 3.523438 L 86.984375 3.523438 L 86.984375 86.453125 Z M 2.9375 86.453125 " fill-opacity="1" fill-rule="nonzero"/></g><g clip-path="url(#00cf22ec75)"><path fill="#d9d9d9" d="M 87.058594 3.546875 L 87.058594 86.476562 L 2.957031 86.476562 L 2.957031 3.546875 Z M 87.058594 3.546875 " fill-opacity="1" fill-rule="nonzero"/></g><g fill="#36ada6" fill-opacity="1"><g transform="translate(9.443121, 56.699999)"><g><path d="M 12.832031 -33.957031 C 13.339844 -33.957031 13.5625 -34.078125 13.5625 -34.484375 C 13.5625 -34.871094 13.339844 -35.15625 12.832031 -35.15625 C 9.210938 -35.15625 6.078125 -32.695312 6.078125 -28.445312 L 6.078125 -21.023438 C 6.078125 -17.976562 5.328125 -15.617188 2.417969 -15.351562 C 1.605469 -15.351562 1.117188 -15.351562 1.117188 -14.722656 C 1.117188 -14.132812 1.523438 -14.132812 2.417969 -14.132812 C 5.125 -13.910156 6.078125 -11.691406 6.078125 -8.867188 L 6.078125 -1.261719 C 6.078125 2.96875 9.171875 5.589844 12.832031 5.589844 C 13.339844 5.589844 13.5625 5.308594 13.5625 4.921875 C 13.5625 4.515625 13.15625 4.390625 12.890625 4.390625 C 9.414062 4.390625 7.238281 2.011719 7.238281 -1.300781 L 7.238281 -9.027344 C 7.238281 -11.957031 6.261719 -13.804688 4.554688 -14.761719 C 6.324219 -15.738281 7.238281 -17.851562 7.238281 -20.800781 L 7.238281 -28.265625 C 7.238281 -31.578125 9.394531 -33.957031 12.832031 -33.957031 Z M 12.832031 -33.957031 "/></g></g></g><g fill="#ffffff" fill-opacity="1"><g transform="translate(18.549995, 56.699999)"><g><path d="M 11.550781 -6.425781 C 11.386719 -3.742188 9.230469 -0.933594 5.773438 -0.933594 C 3.578125 -0.933594 2.277344 -1.726562 1.585938 -2.480469 C 1.464844 -2.644531 1.320312 -2.726562 1.179688 -2.726562 C 1.035156 -2.726562 0.875 -2.625 0.652344 -2.398438 C 0.570312 -2.316406 0.527344 -2.238281 0.527344 -2.15625 C 0.527344 -1.972656 0.628906 -1.769531 0.855469 -1.503906 C 1.972656 -0.285156 3.925781 0.242188 5.855469 0.242188 C 9.496094 0.242188 12.425781 -2.238281 12.648438 -6.058594 C 12.707031 -6.203125 12.6875 -6.261719 12.6875 -6.34375 L 12.6875 -29.648438 C 12.6875 -30.03125 12.503906 -30.214844 12.117188 -30.214844 C 11.734375 -30.214844 11.550781 -30.03125 11.550781 -29.648438 Z M 11.550781 -6.425781 "/></g></g></g><g fill="#ffffff" fill-opacity="1"><g transform="translate(30.342848, 56.699999)"><g><path d="M 39 -0.40625 C 39.082031 -0.121094 39.222656 0.0195312 39.449219 0.0195312 C 39.875 0.0195312 40.117188 -0.265625 40.117188 -0.488281 C 40.117188 -0.570312 40.097656 -0.671875 40.058594 -0.773438 L 27.816406 -30.054688 C 27.714844 -30.277344 27.574219 -30.378906 27.390625 -30.378906 L 27.164062 -30.378906 C 26.941406 -30.378906 26.78125 -30.234375 26.679688 -29.972656 L 20.414062 -14.964844 L 14.113281 -30.054688 C 14.011719 -30.277344 13.867188 -30.378906 13.683594 -30.378906 L 13.460938 -30.378906 C 13.238281 -30.378906 13.074219 -30.234375 12.972656 -29.972656 L 0.773438 -0.8125 C 0.710938 -0.710938 0.691406 -0.609375 0.691406 -0.507812 C 0.691406 -0.265625 0.996094 0 1.402344 0 C 1.585938 0 1.707031 -0.101562 1.789062 -0.324219 L 13.582031 -28.386719 L 19.804688 -13.5 L 14.519531 -0.933594 C 14.476562 -0.8125 14.457031 -0.691406 14.457031 -0.589844 C 14.457031 -0.242188 14.703125 0 15.046875 0 L 25.742188 0 C 26.128906 0 26.414062 -0.183594 26.414062 -0.507812 C 26.414062 -0.570312 26.394531 -0.671875 26.351562 -0.773438 L 21.023438 -13.5 L 27.289062 -28.386719 Z M 20.414062 -12.039062 L 24.96875 -1.140625 L 15.859375 -1.140625 Z M 20.414062 -12.039062 "/></g></g></g><g fill="#a184d8" fill-opacity="1"><g transform="translate(66.818118, 56.699999)"><g><path d="M 0.527344 -33.957031 C 4.003906 -33.957031 6.121094 -31.578125 6.121094 -28.265625 L 6.121094 -20.800781 C 6.121094 -17.851562 7.074219 -15.738281 8.804688 -14.761719 C 7.097656 -13.804688 6.121094 -11.957031 6.121094 -9.027344 L 6.121094 -1.300781 C 6.121094 2.011719 3.945312 4.390625 0.488281 4.390625 C 0.222656 4.390625 -0.183594 4.515625 -0.183594 4.921875 C -0.183594 5.308594 0.0390625 5.589844 0.527344 5.589844 C 4.210938 5.589844 7.300781 2.96875 7.300781 -1.261719 L 7.300781 -8.867188 C 7.300781 -11.691406 8.253906 -13.910156 10.960938 -14.132812 C 11.855469 -14.132812 12.261719 -14.132812 12.261719 -14.722656 C 12.261719 -15.351562 11.773438 -15.351562 10.960938 -15.351562 C 8.050781 -15.617188 7.300781 -17.976562 7.300781 -21.023438 L 7.300781 -28.445312 C 7.300781 -32.695312 4.167969 -35.15625 0.527344 -35.15625 C 0.0390625 -35.15625 -0.183594 -34.871094 -0.183594 -34.484375 C -0.183594 -34.078125 0.0390625 -33.957031 0.527344 -33.957031 Z M 0.527344 -33.957031 "/></g></g></g></svg>