<svg xmlns="http://www.w3.org/2000/svg" xmlns:xlink="http://www.w3.org/1999/xlink" width="120" zoomAndPan="magnify" viewBox="0 0 90 89.999999" height="120" preserveAspectRatio="xMidYMid meet" version="1.0"><defs><g/><clipPath id="3bf4dab5fd"><path d="M 2.9375 3.546875 L 4.054688 3.546875 L 4.054688 5.945312 L 2.9375 5.945312 Z M 2.9375 5.945312 L 4.054688 5.945312 L 4.054688 85.335938 L 2.9375 85.335938 Z M 2.9375 85.335938 L 86.984375 85.335938 L 86.984375 86.453125 L 2.9375 86.453125 Z M 2.9375 85.335938 " clip-rule="nonzero"/></clipPath><clipPath id="8c5a018ab8"><path d="M 3.011719 3.546875 L 86.984375 3.546875 L 86.984375 4.554688 L 3.011719 4.554688 Z M 85.976562 4.554688 L 86.984375 4.554688 L 86.984375 86.453125 L 85.976562 86.453125 Z M 85.976562 4.554688 " clip-rule="nonzero"/></clipPath></defs><rect x="-9" width="108" fill="#ffffff" y="-9" height="107.999999" fill-opacity="1"/><rect x="-9" width="108" fill="#ffffff" y="-9" height="107.999999" fill-opacity="1"/><rect x="-9" width="108" fill="#ffffff" y="-9" height="107.999999" fill-opacity="1"/><g clip-path="url(#3bf4dab5fd)"><path fill="#000000" d="M 2.9375 86.453125 L 2.9375 3.523438 L 86.984375 3.523438 L 86.984375 86.453125 Z M 2.9375 86.453125 " fill-opacity="1" fill-rule="nonzero"/></g><g clip-path="url(#8c5a018ab8)"><path fill="#000000" d="M 86.984375 3.546875 L 86.984375 86.476562 L 3.050781 86.476562 L 3.050781 3.546875 Z M 86.984375 3.546875 " fill-opacity="1" fill-rule="nonzero"/></g><g fill="#83b66d" fill-opacity="1"><g transform="translate(3.484364, 59.999999)"><g><path d="M 16.40625 -43.417969 C 17.054688 -43.417969 17.339844 -43.574219 17.339844 -44.09375 C 17.339844 -44.585938 17.054688 -44.953125 16.40625 -44.953125 C 11.777344 -44.953125 7.773438 -41.804688 7.773438 -36.371094 L 7.773438 -26.882812 C 7.773438 -22.984375 6.8125 -19.96875 3.09375 -19.628906 C 2.054688 -19.628906 1.429688 -19.628906 1.429688 -18.824219 C 1.429688 -18.070312 1.949219 -18.070312 3.09375 -18.070312 C 6.550781 -17.78125 7.773438 -14.949219 7.773438 -11.335938 L 7.773438 -1.613281 C 7.773438 3.796875 11.726562 7.148438 16.40625 7.148438 C 17.054688 7.148438 17.339844 6.785156 17.339844 6.292969 C 17.339844 5.773438 16.820312 5.617188 16.484375 5.617188 C 12.039062 5.617188 9.253906 2.574219 9.253906 -1.664062 L 9.253906 -11.542969 C 9.253906 -15.289062 8.007812 -17.652344 5.824219 -18.875 C 8.085938 -20.121094 9.253906 -22.828125 9.253906 -26.597656 L 9.253906 -36.136719 C 9.253906 -40.375 12.011719 -43.417969 16.40625 -43.417969 Z M 16.40625 -43.417969 "/></g></g></g><g fill="#000000" fill-opacity="1"><g transform="translate(12.531239, 59.999999)"><g><path d="M 14.765625 -8.214844 C 14.558594 -4.785156 11.804688 -1.195312 7.382812 -1.195312 C 4.574219 -1.195312 2.910156 -2.210938 2.027344 -3.171875 C 1.871094 -3.378906 1.691406 -3.484375 1.507812 -3.484375 C 1.324219 -3.484375 1.117188 -3.355469 0.832031 -3.066406 C 0.726562 -2.964844 0.675781 -2.859375 0.675781 -2.757812 C 0.675781 -2.523438 0.804688 -2.261719 1.09375 -1.925781 C 2.523438 -0.363281 5.019531 0.3125 7.488281 0.3125 C 12.140625 0.3125 15.886719 -2.859375 16.171875 -7.746094 C 16.25 -7.929688 16.222656 -8.007812 16.222656 -8.113281 L 16.222656 -37.90625 C 16.222656 -38.398438 15.988281 -38.632812 15.496094 -38.632812 C 15 -38.632812 14.765625 -38.398438 14.765625 -37.90625 Z M 14.765625 -8.214844 "/></g></g></g><g fill="#000000" fill-opacity="1"><g transform="translate(25.009919, 59.999999)"><g><path d="M 49.867188 -0.519531 C 49.96875 -0.15625 50.152344 0.0273438 50.4375 0.0273438 C 50.984375 0.0273438 51.296875 -0.339844 51.296875 -0.625 C 51.296875 -0.726562 51.269531 -0.859375 51.21875 -0.988281 L 35.566406 -38.425781 C 35.4375 -38.710938 35.253906 -38.84375 35.019531 -38.84375 L 34.734375 -38.84375 C 34.449219 -38.84375 34.242188 -38.660156 34.109375 -38.320312 L 26.101562 -19.136719 L 18.042969 -38.425781 C 17.914062 -38.710938 17.730469 -38.84375 17.496094 -38.84375 L 17.210938 -38.84375 C 16.925781 -38.84375 16.71875 -38.660156 16.585938 -38.320312 L 0.988281 -1.039062 C 0.910156 -0.910156 0.882812 -0.78125 0.882812 -0.648438 C 0.882812 -0.339844 1.273438 0 1.792969 0 C 2.027344 0 2.183594 -0.128906 2.289062 -0.414062 L 17.367188 -36.292969 L 25.324219 -17.261719 L 18.5625 -1.195312 C 18.511719 -1.039062 18.484375 -0.882812 18.484375 -0.753906 C 18.484375 -0.3125 18.796875 0 19.238281 0 L 32.914062 0 C 33.410156 0 33.773438 -0.234375 33.773438 -0.648438 C 33.773438 -0.726562 33.746094 -0.859375 33.695312 -0.988281 L 26.882812 -17.261719 L 34.890625 -36.292969 Z M 26.101562 -15.390625 L 31.925781 -1.457031 L 20.277344 -1.457031 Z M 26.101562 -15.390625 "/></g></g></g><g fill="#555882" fill-opacity="1"><g transform="translate(69.039048, 59.999999)"><g><path d="M 0.675781 -43.417969 C 5.121094 -43.417969 7.824219 -40.375 7.824219 -36.136719 L 7.824219 -26.597656 C 7.824219 -22.828125 9.046875 -20.121094 11.257812 -18.875 C 9.074219 -17.652344 7.824219 -15.289062 7.824219 -11.542969 L 7.824219 -1.664062 C 7.824219 2.574219 5.042969 5.617188 0.625 5.617188 C 0.285156 5.617188 -0.234375 5.773438 -0.234375 6.292969 C -0.234375 6.785156 0.0507812 7.148438 0.675781 7.148438 C 5.382812 7.148438 9.332031 3.796875 9.332031 -1.613281 L 9.332031 -11.335938 C 9.332031 -14.949219 10.554688 -17.78125 14.011719 -18.070312 C 15.15625 -18.070312 15.675781 -18.070312 15.675781 -18.824219 C 15.675781 -19.628906 15.054688 -19.628906 14.011719 -19.628906 C 10.296875 -19.96875 9.332031 -22.984375 9.332031 -26.882812 L 9.332031 -36.371094 C 9.332031 -41.804688 5.328125 -44.953125 0.675781 -44.953125 C 0.0507812 -44.953125 -0.234375 -44.585938 -0.234375 -44.09375 C -0.234375 -43.574219 0.0507812 -43.417969 0.675781 -43.417969 Z M 0.675781 -43.417969 "/></g></g></g></svg>